# xmcd
#
# Track frame offsets: 
#        151
#        30582
#        59669
#        83225
#        128245
#        178924
#        207398
#        229719
#        256749
#        299405
#
# Disc length: 4360 seconds
#
# Revision: 3
# Processed by: cddbd v1.5.2PL0 Copyright (c) Steve Scherf et al.
# Submitted via: ExactAudioCopyFreeDBPlugin 1.0
#
DISCID=9211060a
DTITLE=Sonny Rollins - Saxophone Colossus and Work Time
DYEAR=2007
DGENRE=Jazz
TTITLE0=Saint Thomas (Saxophone Colossus)
TTITLE1=You Don't Know What Love Is (Saxophone Colossus)
TTITLE2=Strode Rode (Saxophone Colossus)
TTITLE3=Moritat (Saxophone Colossus)
TTITLE4=Blue (Saxophone Colossus)
TTITLE5=There's No Business Like Show Business (Work Time)
TTITLE6=Paradox (Work Time)
TTITLE7=Raincheck (Work Time)
TTITLE8=There Are Such Things (Work Time)
TTITLE9=It's All Right With Me (Work Time)
EXTD=YEAR: 2007
EXTT0=
EXTT1=
EXTT2=
EXTT3=
EXTT4=
EXTT5=
EXTT6=
EXTT7=
EXTT8=
EXTT9=
PLAYORDER=
